<svg id="Artwork" xmlns="http://www.w3.org/2000/svg" viewBox="0 0 167.2441 49.9249"><defs><style>.cls-1{fill:#fff;}</style></defs><path class="cls-1" d="M19.608,32.0411a20.16047,20.16047,0,0,0,2.7973,5.1124,25.8436,25.8436,0,0,0,12.4819-7.215,20.32785,20.32785,0,0,0-3.04039-4.9742A20.303,20.303,0,0,1,19.608,32.0411Z"/><path class="cls-1" d="M22.3907,12.7713a20.16545,20.16545,0,0,0-2.7862,5.1156,20.30276,20.30276,0,0,1,12.24231,7.0774,20.32785,20.32785,0,0,0,3.04039-4.9742A25.84364,25.84364,0,0,0,22.3907,12.7713Z"/><path class="cls-1" d="M19.608,32.0411a20.14229,20.14229,0,0,1-.5847-12.3341c.166-.6195.36151-1.226.5812-1.8201a20.34315,20.34315,0,0,0-5.8219-.1366A25.84234,25.84234,0,0,0,13.78,32.1779a20.34768,20.34768,0,0,0,5.828-.1368Z"/><path class="cls-1" d="M51.4627,31.4913a5.25552,5.25552,0,0,0,5.3013-3.7108h4.2689a9.60319,9.60319,0,0,1-9.5702,7.2822A9.87749,9.87749,0,0,1,41.2789,24.9625,9.87752,9.87752,0,0,1,51.4627,14.8622a9.60309,9.60309,0,0,1,9.5702,7.2822H56.764a5.2554,5.2554,0,0,0-5.3013-3.7108c-3.68289,0-6.1381,2.7901-6.1381,6.5289S47.77981,31.4913,51.4627,31.4913Z"/><path class="cls-1" d="M66.64181,34.7279H63.0426V15.197h3.59921Z"/><path class="cls-1" d="M76.6307,26.218c0-.9207-.7253-1.5067-2.1203-1.5067a8.6846,8.6846,0,0,0-3.8505,1.1998l-1.42309-2.7343a10.93636,10.93636,0,0,1,5.46879-1.5625c2.9018,0,5.5524,1.3392,5.5524,4.7153v8.3983H76.6307V33.5281a4.3067,4.3067,0,0,1-3.5713,1.5346,4.18873,4.18873,0,0,1-4.4641-4.0178c0-2.4274,1.78551-3.9341,4.63151-3.9341H75.738c.61381,0,.8927-.279.8927-.7533Zm0,3.9341v-.9207a1.57666,1.57666,0,0,1-1.1161.2789H74.1475c-1.1439,0-1.8134.5022-1.8134,1.3951,0,.8649.6973,1.5067,1.8134,1.5067A2.21068,2.21068,0,0,0,76.6307,30.1521Z"/><path class="cls-1" d="M90.2472,25.5205H88.7126c-1.8416,0-2.6786.8649-2.6786,3.097v6.1104H82.4067V21.9491h3.5156v2.0368a3.36569,3.36569,0,0,1,3.3202-2.2042,4.11,4.11,0,0,1,1.0047.1116Z"/><path class="cls-1" d="M97.3621,34.7279H93.735V25.0182H91.9493V21.9491h5.4128ZM95.381,15.197a2.33986,2.33986,0,0,1,2.34381,2.3437,2.32985,2.32985,0,0,1-4.65961,0A2.33406,2.33406,0,0,1,95.381,15.197Z"/><path class="cls-1" d="M105.5096,30.8217l2.9016-8.8726h3.82261L107.6859,34.7279h-4.49209L98.8412,21.9491h3.9341Z"/><path class="cls-1" d="M120.4372,26.218c0-.9207-.7255-1.5067-2.1205-1.5067a8.68538,8.68538,0,0,0-3.8505,1.1998l-1.4229-2.7343a10.93523,10.93523,0,0,1,5.4686-1.5625c2.9018,0,5.5524,1.3392,5.5524,4.7153v8.3983h-3.6271V33.5281a4.30729,4.30729,0,0,1-3.57139,1.5346,4.18876,4.18876,0,0,1-4.46421-4.0178c0-2.4274,1.7856-3.9341,4.6317-3.9341h2.511c.6138,0,.8929-.279.8929-.7533Zm0,3.9341v-.9207a1.57694,1.57694,0,0,1-1.1161.2789H117.954c-1.1441,0-1.8136.5022-1.8136,1.3951,0,.8649.6975,1.5067,1.8136,1.5067A2.21077,2.21077,0,0,0,120.4372,30.1521Z"/><path class="cls-1" d="M131.0681,17.0943v4.8548h2.7622v3.0691h-2.7622v5.7756c0,.8092.6416.9208,1.19971.9208.92069,0,1.674-.0837,1.674-.0837v3.097s-1.75771.1674-2.81811.1674c-1.8135,0-3.68289-.3069-3.68289-2.8738V25.0182H125.432V21.9491h2.00881V17.0943Z"/><path class="cls-1" d="M148.3113,29.3987h-9.5142a3.03438,3.03438,0,0,0,5.4965,1.2556l3.7666.3906a6.84937,6.84937,0,0,1-13.0857-2.7064,6.47228,6.47228,0,0,1,6.6406-6.7242c3.5155,0,6.6962,2.2879,6.6962,7.645Zm-9.5981-2.4273h5.7198a2.77163,2.77163,0,0,0-2.8179-2.3438A2.85,2.85,0,0,0,138.7132,26.9714Z"/><path class="cls-1" d="M150.2769,16.1177h-.9777v2.5708h-1.01739V16.1177h-.97771v-.9032h2.9728Z"/><path class="cls-1" d="M152.262,17.9443l-.4466-1.2407v1.9849h-.9778v-3.474h1.3418l.5069,1.4493.5417-1.4493h1.2622v3.474h-.99739V16.7036l-.44681,1.2407Z"/></svg>