<svg width="578" height="553" viewBox="0 0 578 553" fill="none" xmlns="http://www.w3.org/2000/svg">
<rect width="820" height="721" transform="translate(-46 -79)" fill="white"/>
<path d="M39.8461 495.906V53.094C39.8461 43.6874 48.3178 36.0628 58.7692 36.0628H342.615V104.188C342.615 123 359.56 138.25 380.461 138.25H456.154V189.344H494V121.219C494.029 116.692 492.054 112.34 488.512 109.127L374.974 6.93933C371.403 3.7513 366.568 1.97472 361.538 2.00027H58.7692C27.416 2.00027 2 24.8764 2 53.094V495.906C2 524.125 27.416 547 58.7692 547H191.231V512.938H58.7692C48.3189 512.938 39.8461 505.313 39.8461 495.906Z" fill="black"/>
<path d="M203.458 277.415V454H160V277.415H203.458ZM238.007 454V427.098L311.175 368.897C317.398 363.724 322.617 359.069 326.833 354.93C331.114 350.791 334.359 346.74 336.567 342.773C338.775 338.748 339.88 334.41 339.88 329.753C339.88 324.58 338.508 320.124 335.764 316.389C333.021 312.595 329.275 309.691 324.523 307.68C319.774 305.611 314.386 304.575 308.364 304.575C302.076 304.575 296.589 305.667 291.906 307.853C287.22 310.036 283.608 313.17 281.064 317.25C278.523 321.332 277.251 326.188 277.251 331.822H236C236 320.268 239.045 310.237 245.135 301.73C251.222 293.222 259.754 286.641 270.728 281.985C281.7 277.33 294.348 275 308.665 275C323.386 275 336.199 277.243 347.107 281.727C358.078 286.152 366.61 292.304 372.698 300.178C378.787 308.054 381.833 317.078 381.833 327.252C381.833 333.92 380.293 340.503 377.215 346.997C374.204 353.492 368.818 360.707 361.057 368.639C353.296 376.515 342.355 385.97 328.237 397.008L298.227 422.271V423.477H384.541V454H238.007ZM417.236 454V277.415H498.331C513.922 277.415 527.203 279.974 538.177 285.09C549.149 290.147 557.513 297.188 563.267 306.214C569.089 315.18 572 325.528 572 337.255C572 348.98 569.054 359.327 563.167 368.294C557.278 377.261 548.749 384.245 537.574 389.247C526.468 394.247 513.018 396.748 497.226 396.748H445.539V366.828H490.201C498.565 366.828 505.456 365.593 510.877 363.121C516.364 360.592 520.444 357.114 523.121 352.688C525.865 348.204 527.236 343.059 527.236 337.255C527.236 331.392 525.865 326.276 523.121 321.907C520.444 317.48 516.364 314.059 510.877 311.647C505.39 309.175 498.432 307.938 490 307.938H460.695V454H417.236Z" fill="black"/>
</svg>
